<mxfile host="app.diagrams.net" modified="2023-11-02T08:59:12.093Z" agent="Mozilla/5.0 (Windows NT 10.0; Win64; x64) AppleWebKit/537.36 (KHTML, like Gecko) Chrome/118.0.0.0 Safari/537.36 Edg/118.0.2088.76" etag="Al_aRIWe8nACCXZFJQ1i" version="22.0.8" type="github">
  <diagram name="第 1 页" id="K-jwmzLhK81YXCOxFXKA">
    <mxGraphModel dx="797" dy="481" grid="1" gridSize="10" guides="1" tooltips="1" connect="1" arrows="1" fold="1" page="1" pageScale="1" pageWidth="827" pageHeight="1169" math="0" shadow="0">
      <root>
        <mxCell id="0" />
        <mxCell id="1" parent="0" />
        <mxCell id="EEYzzeCFSnhy3io55bqU-3" value="" style="rounded=1;whiteSpace=wrap;html=1;fillColor=#fff2cc;strokeColor=#d6b656;" vertex="1" parent="1">
          <mxGeometry x="80" y="70" width="650" height="180" as="geometry" />
        </mxCell>
        <mxCell id="EEYzzeCFSnhy3io55bqU-26" style="edgeStyle=orthogonalEdgeStyle;rounded=0;orthogonalLoop=1;jettySize=auto;html=1;exitX=1;exitY=0.5;exitDx=0;exitDy=0;entryX=0;entryY=0.5;entryDx=0;entryDy=0;" edge="1" parent="1" source="EEYzzeCFSnhy3io55bqU-8" target="EEYzzeCFSnhy3io55bqU-11">
          <mxGeometry relative="1" as="geometry" />
        </mxCell>
        <mxCell id="EEYzzeCFSnhy3io55bqU-8" value="Pod1" style="rounded=1;whiteSpace=wrap;html=1;fillColor=#f8cecc;strokeColor=#b85450;" vertex="1" parent="1">
          <mxGeometry x="100" y="90" width="120" height="60" as="geometry" />
        </mxCell>
        <mxCell id="EEYzzeCFSnhy3io55bqU-29" style="edgeStyle=orthogonalEdgeStyle;rounded=0;orthogonalLoop=1;jettySize=auto;html=1;entryX=0;entryY=0.5;entryDx=0;entryDy=0;" edge="1" parent="1" source="EEYzzeCFSnhy3io55bqU-9" target="EEYzzeCFSnhy3io55bqU-12">
          <mxGeometry relative="1" as="geometry" />
        </mxCell>
        <mxCell id="EEYzzeCFSnhy3io55bqU-9" value="Pod2" style="rounded=1;whiteSpace=wrap;html=1;fillColor=#f8cecc;strokeColor=#b85450;" vertex="1" parent="1">
          <mxGeometry x="100" y="170" width="120" height="60" as="geometry" />
        </mxCell>
        <mxCell id="EEYzzeCFSnhy3io55bqU-27" style="edgeStyle=orthogonalEdgeStyle;rounded=0;orthogonalLoop=1;jettySize=auto;html=1;entryX=1;entryY=0.5;entryDx=0;entryDy=0;" edge="1" parent="1" source="EEYzzeCFSnhy3io55bqU-11" target="EEYzzeCFSnhy3io55bqU-8">
          <mxGeometry relative="1" as="geometry" />
        </mxCell>
        <mxCell id="EEYzzeCFSnhy3io55bqU-30" style="edgeStyle=orthogonalEdgeStyle;rounded=0;orthogonalLoop=1;jettySize=auto;html=1;entryX=0.5;entryY=1;entryDx=0;entryDy=0;" edge="1" parent="1" source="EEYzzeCFSnhy3io55bqU-11" target="EEYzzeCFSnhy3io55bqU-13">
          <mxGeometry relative="1" as="geometry" />
        </mxCell>
        <mxCell id="EEYzzeCFSnhy3io55bqU-11" value="veth0" style="rounded=0;whiteSpace=wrap;html=1;fillColor=#ffe6cc;strokeColor=#d79b00;" vertex="1" parent="1">
          <mxGeometry x="260" y="100" width="80" height="40" as="geometry" />
        </mxCell>
        <mxCell id="EEYzzeCFSnhy3io55bqU-28" style="edgeStyle=orthogonalEdgeStyle;rounded=0;orthogonalLoop=1;jettySize=auto;html=1;entryX=1;entryY=0.5;entryDx=0;entryDy=0;" edge="1" parent="1" source="EEYzzeCFSnhy3io55bqU-12" target="EEYzzeCFSnhy3io55bqU-9">
          <mxGeometry relative="1" as="geometry" />
        </mxCell>
        <mxCell id="EEYzzeCFSnhy3io55bqU-31" style="edgeStyle=orthogonalEdgeStyle;rounded=0;orthogonalLoop=1;jettySize=auto;html=1;entryX=0.5;entryY=1;entryDx=0;entryDy=0;" edge="1" parent="1" source="EEYzzeCFSnhy3io55bqU-12" target="EEYzzeCFSnhy3io55bqU-13">
          <mxGeometry relative="1" as="geometry" />
        </mxCell>
        <mxCell id="EEYzzeCFSnhy3io55bqU-12" value="veth1" style="rounded=0;whiteSpace=wrap;html=1;fillColor=#ffe6cc;strokeColor=#d79b00;" vertex="1" parent="1">
          <mxGeometry x="260" y="180" width="80" height="40" as="geometry" />
        </mxCell>
        <mxCell id="EEYzzeCFSnhy3io55bqU-32" style="edgeStyle=orthogonalEdgeStyle;rounded=0;orthogonalLoop=1;jettySize=auto;html=1;entryX=1;entryY=0.5;entryDx=0;entryDy=0;" edge="1" parent="1" source="EEYzzeCFSnhy3io55bqU-13" target="EEYzzeCFSnhy3io55bqU-11">
          <mxGeometry relative="1" as="geometry">
            <Array as="points">
              <mxPoint x="360" y="160" />
              <mxPoint x="360" y="120" />
            </Array>
          </mxGeometry>
        </mxCell>
        <mxCell id="EEYzzeCFSnhy3io55bqU-33" style="edgeStyle=orthogonalEdgeStyle;rounded=0;orthogonalLoop=1;jettySize=auto;html=1;entryX=1;entryY=0.5;entryDx=0;entryDy=0;" edge="1" parent="1" source="EEYzzeCFSnhy3io55bqU-13" target="EEYzzeCFSnhy3io55bqU-12">
          <mxGeometry relative="1" as="geometry">
            <Array as="points">
              <mxPoint x="360" y="160" />
              <mxPoint x="360" y="200" />
            </Array>
          </mxGeometry>
        </mxCell>
        <mxCell id="EEYzzeCFSnhy3io55bqU-34" style="edgeStyle=orthogonalEdgeStyle;rounded=0;orthogonalLoop=1;jettySize=auto;html=1;entryX=0.5;entryY=1;entryDx=0;entryDy=0;" edge="1" parent="1" source="EEYzzeCFSnhy3io55bqU-13" target="EEYzzeCFSnhy3io55bqU-14">
          <mxGeometry relative="1" as="geometry" />
        </mxCell>
        <mxCell id="EEYzzeCFSnhy3io55bqU-13" value="docker0" style="rounded=0;whiteSpace=wrap;html=1;direction=south;horizontal=1;fillColor=#ffe6cc;strokeColor=#d79b00;" vertex="1" parent="1">
          <mxGeometry x="375" y="100" width="60" height="120" as="geometry" />
        </mxCell>
        <mxCell id="EEYzzeCFSnhy3io55bqU-35" style="edgeStyle=orthogonalEdgeStyle;rounded=0;orthogonalLoop=1;jettySize=auto;html=1;entryX=0.5;entryY=0;entryDx=0;entryDy=0;" edge="1" parent="1" source="EEYzzeCFSnhy3io55bqU-14" target="EEYzzeCFSnhy3io55bqU-13">
          <mxGeometry relative="1" as="geometry" />
        </mxCell>
        <mxCell id="EEYzzeCFSnhy3io55bqU-14" value="flannel0" style="rounded=0;whiteSpace=wrap;html=1;direction=south;fillColor=#ffe6cc;strokeColor=#d79b00;" vertex="1" parent="1">
          <mxGeometry x="460" y="100" width="60" height="120" as="geometry" />
        </mxCell>
        <mxCell id="EEYzzeCFSnhy3io55bqU-38" style="edgeStyle=orthogonalEdgeStyle;rounded=0;orthogonalLoop=1;jettySize=auto;html=1;" edge="1" parent="1" source="EEYzzeCFSnhy3io55bqU-15">
          <mxGeometry relative="1" as="geometry">
            <mxPoint x="710" y="160" as="targetPoint" />
          </mxGeometry>
        </mxCell>
        <mxCell id="EEYzzeCFSnhy3io55bqU-15" value="flanneld" style="rounded=0;whiteSpace=wrap;html=1;fillColor=#f8cecc;strokeColor=#b85450;" vertex="1" parent="1">
          <mxGeometry x="550" y="140" width="120" height="40" as="geometry" />
        </mxCell>
        <mxCell id="EEYzzeCFSnhy3io55bqU-37" style="edgeStyle=orthogonalEdgeStyle;rounded=0;orthogonalLoop=1;jettySize=auto;html=1;entryX=1;entryY=0.5;entryDx=0;entryDy=0;" edge="1" parent="1" source="EEYzzeCFSnhy3io55bqU-16" target="EEYzzeCFSnhy3io55bqU-15">
          <mxGeometry relative="1" as="geometry" />
        </mxCell>
        <mxCell id="EEYzzeCFSnhy3io55bqU-82" style="edgeStyle=orthogonalEdgeStyle;rounded=0;orthogonalLoop=1;jettySize=auto;html=1;entryX=0.5;entryY=0;entryDx=0;entryDy=0;" edge="1" parent="1" source="EEYzzeCFSnhy3io55bqU-16" target="EEYzzeCFSnhy3io55bqU-80">
          <mxGeometry relative="1" as="geometry">
            <Array as="points">
              <mxPoint x="800" y="160" />
              <mxPoint x="800" y="380" />
            </Array>
          </mxGeometry>
        </mxCell>
        <mxCell id="EEYzzeCFSnhy3io55bqU-16" value="etcd" style="rounded=0;whiteSpace=wrap;html=1;direction=south;fillColor=#ffe6cc;strokeColor=#d79b00;" vertex="1" parent="1">
          <mxGeometry x="710" y="100" width="60" height="120" as="geometry" />
        </mxCell>
        <mxCell id="EEYzzeCFSnhy3io55bqU-36" value="" style="endArrow=classic;startArrow=classic;html=1;rounded=0;exitX=0.5;exitY=0;exitDx=0;exitDy=0;entryX=0;entryY=0.5;entryDx=0;entryDy=0;" edge="1" parent="1" source="EEYzzeCFSnhy3io55bqU-14" target="EEYzzeCFSnhy3io55bqU-15">
          <mxGeometry width="50" height="50" relative="1" as="geometry">
            <mxPoint x="560" y="240" as="sourcePoint" />
            <mxPoint x="610" y="190" as="targetPoint" />
          </mxGeometry>
        </mxCell>
        <mxCell id="EEYzzeCFSnhy3io55bqU-60" value="" style="rounded=1;whiteSpace=wrap;html=1;fillColor=#fff2cc;strokeColor=#d6b656;" vertex="1" parent="1">
          <mxGeometry x="80" y="290" width="650" height="180" as="geometry" />
        </mxCell>
        <mxCell id="EEYzzeCFSnhy3io55bqU-61" style="edgeStyle=orthogonalEdgeStyle;rounded=0;orthogonalLoop=1;jettySize=auto;html=1;exitX=1;exitY=0.5;exitDx=0;exitDy=0;entryX=0;entryY=0.5;entryDx=0;entryDy=0;" edge="1" parent="1" source="EEYzzeCFSnhy3io55bqU-62" target="EEYzzeCFSnhy3io55bqU-67">
          <mxGeometry relative="1" as="geometry" />
        </mxCell>
        <mxCell id="EEYzzeCFSnhy3io55bqU-62" value="Pod1" style="rounded=1;whiteSpace=wrap;html=1;fillColor=#f8cecc;strokeColor=#b85450;" vertex="1" parent="1">
          <mxGeometry x="100" y="310" width="120" height="60" as="geometry" />
        </mxCell>
        <mxCell id="EEYzzeCFSnhy3io55bqU-63" style="edgeStyle=orthogonalEdgeStyle;rounded=0;orthogonalLoop=1;jettySize=auto;html=1;entryX=0;entryY=0.5;entryDx=0;entryDy=0;" edge="1" parent="1" source="EEYzzeCFSnhy3io55bqU-64" target="EEYzzeCFSnhy3io55bqU-70">
          <mxGeometry relative="1" as="geometry" />
        </mxCell>
        <mxCell id="EEYzzeCFSnhy3io55bqU-64" value="Pod2" style="rounded=1;whiteSpace=wrap;html=1;fillColor=#f8cecc;strokeColor=#b85450;" vertex="1" parent="1">
          <mxGeometry x="100" y="390" width="120" height="60" as="geometry" />
        </mxCell>
        <mxCell id="EEYzzeCFSnhy3io55bqU-65" style="edgeStyle=orthogonalEdgeStyle;rounded=0;orthogonalLoop=1;jettySize=auto;html=1;entryX=1;entryY=0.5;entryDx=0;entryDy=0;" edge="1" parent="1" source="EEYzzeCFSnhy3io55bqU-67" target="EEYzzeCFSnhy3io55bqU-62">
          <mxGeometry relative="1" as="geometry" />
        </mxCell>
        <mxCell id="EEYzzeCFSnhy3io55bqU-66" style="edgeStyle=orthogonalEdgeStyle;rounded=0;orthogonalLoop=1;jettySize=auto;html=1;entryX=0.5;entryY=1;entryDx=0;entryDy=0;" edge="1" parent="1" source="EEYzzeCFSnhy3io55bqU-67" target="EEYzzeCFSnhy3io55bqU-74">
          <mxGeometry relative="1" as="geometry" />
        </mxCell>
        <mxCell id="EEYzzeCFSnhy3io55bqU-67" value="veth0" style="rounded=0;whiteSpace=wrap;html=1;fillColor=#ffe6cc;strokeColor=#d79b00;" vertex="1" parent="1">
          <mxGeometry x="260" y="320" width="80" height="40" as="geometry" />
        </mxCell>
        <mxCell id="EEYzzeCFSnhy3io55bqU-68" style="edgeStyle=orthogonalEdgeStyle;rounded=0;orthogonalLoop=1;jettySize=auto;html=1;entryX=1;entryY=0.5;entryDx=0;entryDy=0;" edge="1" parent="1" source="EEYzzeCFSnhy3io55bqU-70" target="EEYzzeCFSnhy3io55bqU-64">
          <mxGeometry relative="1" as="geometry" />
        </mxCell>
        <mxCell id="EEYzzeCFSnhy3io55bqU-69" style="edgeStyle=orthogonalEdgeStyle;rounded=0;orthogonalLoop=1;jettySize=auto;html=1;entryX=0.5;entryY=1;entryDx=0;entryDy=0;" edge="1" parent="1" source="EEYzzeCFSnhy3io55bqU-70" target="EEYzzeCFSnhy3io55bqU-74">
          <mxGeometry relative="1" as="geometry" />
        </mxCell>
        <mxCell id="EEYzzeCFSnhy3io55bqU-70" value="veth1" style="rounded=0;whiteSpace=wrap;html=1;fillColor=#ffe6cc;strokeColor=#d79b00;" vertex="1" parent="1">
          <mxGeometry x="260" y="400" width="80" height="40" as="geometry" />
        </mxCell>
        <mxCell id="EEYzzeCFSnhy3io55bqU-71" style="edgeStyle=orthogonalEdgeStyle;rounded=0;orthogonalLoop=1;jettySize=auto;html=1;entryX=1;entryY=0.5;entryDx=0;entryDy=0;" edge="1" parent="1" source="EEYzzeCFSnhy3io55bqU-74" target="EEYzzeCFSnhy3io55bqU-67">
          <mxGeometry relative="1" as="geometry">
            <Array as="points">
              <mxPoint x="360" y="380" />
              <mxPoint x="360" y="340" />
            </Array>
          </mxGeometry>
        </mxCell>
        <mxCell id="EEYzzeCFSnhy3io55bqU-72" style="edgeStyle=orthogonalEdgeStyle;rounded=0;orthogonalLoop=1;jettySize=auto;html=1;entryX=1;entryY=0.5;entryDx=0;entryDy=0;" edge="1" parent="1" source="EEYzzeCFSnhy3io55bqU-74" target="EEYzzeCFSnhy3io55bqU-70">
          <mxGeometry relative="1" as="geometry">
            <Array as="points">
              <mxPoint x="360" y="380" />
              <mxPoint x="360" y="420" />
            </Array>
          </mxGeometry>
        </mxCell>
        <mxCell id="EEYzzeCFSnhy3io55bqU-73" style="edgeStyle=orthogonalEdgeStyle;rounded=0;orthogonalLoop=1;jettySize=auto;html=1;entryX=0.5;entryY=1;entryDx=0;entryDy=0;" edge="1" parent="1" source="EEYzzeCFSnhy3io55bqU-74" target="EEYzzeCFSnhy3io55bqU-76">
          <mxGeometry relative="1" as="geometry" />
        </mxCell>
        <mxCell id="EEYzzeCFSnhy3io55bqU-74" value="docker0" style="rounded=0;whiteSpace=wrap;html=1;direction=south;horizontal=1;fillColor=#ffe6cc;strokeColor=#d79b00;" vertex="1" parent="1">
          <mxGeometry x="375" y="320" width="60" height="120" as="geometry" />
        </mxCell>
        <mxCell id="EEYzzeCFSnhy3io55bqU-75" style="edgeStyle=orthogonalEdgeStyle;rounded=0;orthogonalLoop=1;jettySize=auto;html=1;entryX=0.5;entryY=0;entryDx=0;entryDy=0;" edge="1" parent="1" source="EEYzzeCFSnhy3io55bqU-76" target="EEYzzeCFSnhy3io55bqU-74">
          <mxGeometry relative="1" as="geometry" />
        </mxCell>
        <mxCell id="EEYzzeCFSnhy3io55bqU-76" value="flannel0" style="rounded=0;whiteSpace=wrap;html=1;direction=south;fillColor=#ffe6cc;strokeColor=#d79b00;" vertex="1" parent="1">
          <mxGeometry x="460" y="320" width="60" height="120" as="geometry" />
        </mxCell>
        <mxCell id="EEYzzeCFSnhy3io55bqU-77" style="edgeStyle=orthogonalEdgeStyle;rounded=0;orthogonalLoop=1;jettySize=auto;html=1;" edge="1" parent="1" source="EEYzzeCFSnhy3io55bqU-78">
          <mxGeometry relative="1" as="geometry">
            <mxPoint x="710" y="380" as="targetPoint" />
          </mxGeometry>
        </mxCell>
        <mxCell id="EEYzzeCFSnhy3io55bqU-78" value="flanneld" style="rounded=0;whiteSpace=wrap;html=1;fillColor=#f8cecc;strokeColor=#b85450;" vertex="1" parent="1">
          <mxGeometry x="550" y="360" width="120" height="40" as="geometry" />
        </mxCell>
        <mxCell id="EEYzzeCFSnhy3io55bqU-79" style="edgeStyle=orthogonalEdgeStyle;rounded=0;orthogonalLoop=1;jettySize=auto;html=1;entryX=1;entryY=0.5;entryDx=0;entryDy=0;" edge="1" parent="1" source="EEYzzeCFSnhy3io55bqU-80" target="EEYzzeCFSnhy3io55bqU-78">
          <mxGeometry relative="1" as="geometry" />
        </mxCell>
        <mxCell id="EEYzzeCFSnhy3io55bqU-83" style="edgeStyle=orthogonalEdgeStyle;rounded=0;orthogonalLoop=1;jettySize=auto;html=1;entryX=0.5;entryY=0;entryDx=0;entryDy=0;exitX=0.5;exitY=0;exitDx=0;exitDy=0;" edge="1" parent="1" source="EEYzzeCFSnhy3io55bqU-80" target="EEYzzeCFSnhy3io55bqU-16">
          <mxGeometry relative="1" as="geometry">
            <Array as="points">
              <mxPoint x="800" y="380" />
              <mxPoint x="800" y="160" />
            </Array>
          </mxGeometry>
        </mxCell>
        <mxCell id="EEYzzeCFSnhy3io55bqU-80" value="etcd" style="rounded=0;whiteSpace=wrap;html=1;direction=south;fillColor=#ffe6cc;strokeColor=#d79b00;" vertex="1" parent="1">
          <mxGeometry x="710" y="320" width="60" height="120" as="geometry" />
        </mxCell>
        <mxCell id="EEYzzeCFSnhy3io55bqU-81" value="" style="endArrow=classic;startArrow=classic;html=1;rounded=0;exitX=0.5;exitY=0;exitDx=0;exitDy=0;entryX=0;entryY=0.5;entryDx=0;entryDy=0;" edge="1" parent="1" source="EEYzzeCFSnhy3io55bqU-76" target="EEYzzeCFSnhy3io55bqU-78">
          <mxGeometry width="50" height="50" relative="1" as="geometry">
            <mxPoint x="560" y="460" as="sourcePoint" />
            <mxPoint x="610" y="410" as="targetPoint" />
          </mxGeometry>
        </mxCell>
      </root>
    </mxGraphModel>
  </diagram>
</mxfile>
